<?xml version="1.0" encoding="UTF-8"?><!DOCTYPE svg PUBLIC "-//W3C//DTD SVG 1.1//EN" "http://www.w3.org/Graphics/SVG/1.1/DTD/svg11.dtd"><svg xmlns="http://www.w3.org/2000/svg" xmlns:xlink="http://www.w3.org/1999/xlink"><defs/><symbol id="active" viewBox="0 0 24 24">
<path fill-rule="evenodd" clip-rule="evenodd" d="M20 12C20 16.4183 16.4183 20 12 20C7.58172 20 4 16.4183 4 12C4 7.58172 7.58172 4 12 4C16.4183 4 20 7.58172 20 12ZM12 21C16.9706 21 21 16.9706 21 12C21 7.02944 16.9706 3 12 3C7.02944 3 3 7.02944 3 12C3 16.9706 7.02944 21 12 21ZM16.358 9.349C16.5508 9.15126 16.5467 8.8347 16.349 8.64195C16.1513 8.4492 15.8347 8.45325 15.642 8.651L10.1496 14.2856L8.35616 12.4654C8.16235 12.2687 7.84578 12.2664 7.64908 12.4602C7.45237 12.654 7.45003 12.9706 7.64384 13.1673L9.79539 15.3509C9.88969 15.4466 10.0185 15.5004 10.1529 15.5C10.2873 15.4996 10.4158 15.4452 10.5096 15.349L16.358 9.349Z"/>
</symbol><symbol id="add" viewBox="0 0 24 24">
<path fill-rule="evenodd" clip-rule="evenodd" d="M12.4995 3.5C12.4995 3.22386 12.2757 3 11.9995 3C11.7234 3 11.4995 3.22386 11.4995 3.5V11.5005H3.5C3.22386 11.5005 3 11.7243 3 12.0005C3 12.2766 3.22386 12.5005 3.5 12.5005H11.4995V20.5C11.4995 20.7761 11.7234 21 11.9995 21C12.2757 21 12.4995 20.7761 12.4995 20.5V12.5005H20.5C20.7761 12.5005 21 12.2766 21 12.0005C21 11.7243 20.7761 11.5005 20.5 11.5005H12.4995V3.5Z"/>
</symbol><symbol id="archive" viewBox="0 0 24 24">
<path d="M9.5 11C9.22386 11 9 11.2239 9 11.5C9 11.7761 9.22386 12 9.5 12H14.5C14.7761 12 15 11.7761 15 11.5C15 11.2239 14.7761 11 14.5 11H9.5Z"/>
<path d="M9.5 5C9.22386 5 9 5.22386 9 5.5C9 5.77614 9.22386 6 9.5 6H14.5C14.7761 6 15 5.77614 15 5.5C15 5.22386 14.7761 5 14.5 5H9.5Z"/>
<path d="M9 17.5C9 17.2239 9.22386 17 9.5 17H14.5C14.7761 17 15 17.2239 15 17.5C15 17.7761 14.7761 18 14.5 18H9.5C9.22386 18 9 17.7761 9 17.5Z"/>
<path fill-rule="evenodd" clip-rule="evenodd" d="M5 2.5C5 2.22386 5.22386 2 5.5 2H18.5C18.7761 2 19 2.22386 19 2.5V20.5C19 20.7761 18.7761 21 18.5 21H5.5C5.22386 21 5 20.7761 5 20.5V2.5ZM6 14L6 9L18 9V14L6 14ZM18 8L6 8L6 3H18V8ZM6 15V20H18V15L6 15Z"/>
</symbol><symbol id="arrowDown" viewBox="0 0 24 24">
<path fill-rule="evenodd" clip-rule="evenodd" d="M4.64645 8.14645C4.84171 7.95118 5.15829 7.95118 5.35355 8.14645L12 14.7929L18.6464 8.14645C18.8417 7.95118 19.1583 7.95118 19.3536 8.14645C19.5488 8.34171 19.5488 8.65829 19.3536 8.85355L12.3536 15.8536C12.1583 16.0488 11.8417 16.0488 11.6464 15.8536L4.64645 8.85355C4.45118 8.65829 4.45118 8.34171 4.64645 8.14645Z"/>
</symbol><symbol id="arrowLeft" viewBox="0 0 24 24">
<path fill-rule="evenodd" clip-rule="evenodd" d="M9.20711 12.5L15.8536 5.85355C16.0488 5.65829 16.0488 5.34171 15.8536 5.14645C15.6583 4.95118 15.3417 4.95118 15.1464 5.14645L8.14645 12.1464C7.95118 12.3417 7.95118 12.6583 8.14645 12.8536L15.1464 19.8536C15.3417 20.0488 15.6583 20.0488 15.8536 19.8536C16.0488 19.6583 16.0488 19.3417 15.8536 19.1464L9.20711 12.5Z"/>
</symbol><symbol id="arrowLeftDouble" viewBox="0 0 24 24">
<path fill-rule="evenodd" clip-rule="evenodd" d="M11.8536 5.85355C12.0488 5.65829 12.0488 5.34171 11.8536 5.14645C11.6583 4.95118 11.3417 4.95118 11.1464 5.14645L4.14645 12.1464C3.95118 12.3417 3.95118 12.6583 4.14645 12.8536L11.1464 19.8536C11.3417 20.0488 11.6583 20.0488 11.8536 19.8536C12.0488 19.6583 12.0488 19.3417 11.8536 19.1464L5.20711 12.5L11.8536 5.85355ZM19.8536 5.85355C20.0488 5.65829 20.0488 5.34171 19.8536 5.14645C19.6583 4.95119 19.3417 4.95119 19.1464 5.14645L12.1464 12.1464C11.9512 12.3417 11.9512 12.6583 12.1464 12.8536L19.1464 19.8536C19.3417 20.0488 19.6583 20.0488 19.8536 19.8536C20.0488 19.6583 20.0488 19.3417 19.8536 19.1464L13.2071 12.5L19.8536 5.85355Z"/>
</symbol><symbol id="arrowRight" viewBox="0 0 24 24">
<path fill-rule="evenodd" clip-rule="evenodd" d="M8.14645 19.8536C7.95118 19.6583 7.95118 19.3417 8.14645 19.1464L14.7929 12.5L8.14645 5.85355C7.95118 5.65829 7.95118 5.34171 8.14645 5.14645C8.34171 4.95118 8.65829 4.95118 8.85355 5.14645L15.8536 12.1464C16.0488 12.3417 16.0488 12.6583 15.8536 12.8536L8.85355 19.8536C8.65829 20.0488 8.34171 20.0488 8.14645 19.8536Z"/>
</symbol><symbol id="arrowRightDouble" viewBox="0 0 24 24">
<path fill-rule="evenodd" clip-rule="evenodd" d="M4.14645 19.1464C3.95118 19.3417 3.95118 19.6583 4.14645 19.8536C4.34171 20.0488 4.65829 20.0488 4.85355 19.8536L11.8536 12.8536C12.0488 12.6583 12.0488 12.3417 11.8536 12.1464L4.85355 5.14645C4.65829 4.95118 4.34171 4.95118 4.14645 5.14645C3.95118 5.34171 3.95118 5.65829 4.14645 5.85355L10.7929 12.5L4.14645 19.1464ZM12.1464 19.1464C11.9512 19.3417 11.9512 19.6583 12.1464 19.8536C12.3417 20.0488 12.6583 20.0488 12.8536 19.8536L19.8536 12.8536C20.0488 12.6583 20.0488 12.3417 19.8536 12.1464L12.8536 5.14645C12.6583 4.95118 12.3417 4.95118 12.1464 5.14645C11.9512 5.34171 11.9512 5.65829 12.1464 5.85355L18.7929 12.5L12.1464 19.1464Z"/>
</symbol><symbol id="attach" viewBox="0 0 24 24">
<path fill-rule="evenodd" clip-rule="evenodd" d="M15.55 4C14.7451 4 13.9787 4.30181 13.418 4.83062L5.38083 12.4107C4.49292 13.2481 4 14.3774 4 15.5483C4 16.7192 4.49292 17.8485 5.38083 18.6859C6.26974 19.5243 7.48129 20 8.75028 20C10.0193 20 11.2308 19.5243 12.1197 18.6859L20.1569 11.1058C20.3578 10.9164 20.6743 10.9256 20.8637 11.1265C21.0532 11.3274 21.0439 11.6439 20.8431 11.8333L12.8058 19.4134C11.7255 20.4323 10.2662 21 8.75028 21C7.23435 21 5.77504 20.4323 4.69471 19.4134C3.61339 18.3936 3 17.004 3 15.5483C3 14.0927 3.61339 12.703 4.69471 11.6832L12.7319 4.10313C13.484 3.39378 14.4982 3 15.55 3C16.6018 3 17.6159 3.39378 18.3681 4.10313C19.1212 4.81341 19.5502 5.78323 19.5502 6.80111C19.5502 7.81899 19.1212 8.78882 18.3681 9.4991L10.3221 17.0792C9.89818 17.479 9.32916 17.6989 8.74154 17.6989C8.15391 17.6989 7.58489 17.479 7.16097 17.0792C6.73606 16.6784 6.49144 16.1285 6.49144 15.5483C6.49144 14.9682 6.73606 14.4182 7.16097 14.0175L12.73 8.77141C12.931 8.58206 13.2474 8.59151 13.4367 8.79251C13.6261 8.99351 13.6166 9.30995 13.4156 9.4993L7.84709 14.745C7.61559 14.9633 7.49144 15.2529 7.49144 15.5483C7.49144 15.8437 7.61559 16.1334 7.84709 16.3517C8.07958 16.571 8.40085 16.6989 8.74154 16.6989C9.08222 16.6989 9.40349 16.571 9.63598 16.3517L17.6819 8.77161C18.2416 8.24374 18.5502 7.53425 18.5502 6.80111C18.5502 6.06797 18.2416 5.35849 17.6819 4.83062C17.1212 4.30181 16.3548 4 15.55 4Z"/>
</symbol><symbol id="bold" viewBox="0 0 24 24">
<path fill-rule="evenodd" clip-rule="evenodd" d="M7 4C6.44772 4 6 4.44772 6 5V19C6 19.5523 6.44772 20 7 20H14C15.1935 20 16.3381 19.5259 17.182 18.682C18.0259 17.8381 18.5 16.6935 18.5 15.5C18.5 14.3065 18.0259 13.1619 17.182 12.318C16.9031 12.0391 16.5914 11.8006 16.2559 11.6063C17.0535 10.7703 17.5 9.65816 17.5 8.5C17.5 7.30653 17.0259 6.16193 16.182 5.31802C15.3381 4.47411 14.1935 4 13 4H7ZM8 13V18H14C14.663 18 15.2989 17.7366 15.7678 17.2678C16.2366 16.7989 16.5 16.163 16.5 15.5C16.5 14.837 16.2366 14.2011 15.7678 13.7322C15.2989 13.2634 14.663 13 14 13H8ZM13 11C13.663 11 14.2989 10.7366 14.7678 10.2678C15.2366 9.79893 15.5 9.16304 15.5 8.5C15.5 7.83696 15.2366 7.20107 14.7678 6.73223C14.2989 6.26339 13.663 6 13 6H8V11H13Z"/>
</symbol><symbol id="bulletList" viewBox="0 0 24 24">
<path d="M6 6C6 5.44772 5.55228 5 5 5C4.44772 5 4 5.44772 4 6V6.01C4 6.56228 4.44772 7.01 5 7.01C5.55228 7.01 6 6.56228 6 6.01V6Z"/>
<path d="M9 5.5C8.72386 5.5 8.5 5.72386 8.5 6C8.5 6.27614 8.72386 6.5 9 6.5H20C20.2761 6.5 20.5 6.27614 20.5 6C20.5 5.72386 20.2761 5.5 20 5.5H9Z"/>
<path d="M9 11.5C8.72386 11.5 8.5 11.7239 8.5 12C8.5 12.2761 8.72386 12.5 9 12.5H20C20.2761 12.5 20.5 12.2761 20.5 12C20.5 11.7239 20.2761 11.5 20 11.5H9Z"/>
<path d="M8.5 18C8.5 17.7239 8.72386 17.5 9 17.5H20C20.2761 17.5 20.5 17.7239 20.5 18C20.5 18.2761 20.2761 18.5 20 18.5H9C8.72386 18.5 8.5 18.2761 8.5 18Z"/>
<path d="M5 11C5.55228 11 6 11.4477 6 12V12.01C6 12.5623 5.55228 13.01 5 13.01C4.44772 13.01 4 12.5623 4 12.01V12C4 11.4477 4.44772 11 5 11Z"/>
<path d="M6 18C6 17.4477 5.55228 17 5 17C4.44772 17 4 17.4477 4 18V18.01C4 18.5623 4.44772 19.01 5 19.01C5.55228 19.01 6 18.5623 6 18.01V18Z"/>
</symbol><symbol id="calendar" viewBox="0 0 24 24">
  <path fill-rule="evenodd" clip-rule="evenodd" d="M13 12.5C13 12.2239 13.2239 12 13.5 12H17.5C17.7761 12 18 12.2239 18 12.5V16.5C18 16.7761 17.7761 17 17.5 17H13.5C13.2239 17 13 16.7761 13 16.5V12.5ZM14 16V13H17V16H14Z"/>
  <path fill-rule="evenodd" clip-rule="evenodd" d="M15.5 4C15.7761 4 16 4.22386 16 4.5V5H20.5C20.7761 5 21 5.22386 21 5.5V19.5C21 19.7761 20.7761 20 20.5 20H3.5C3.22386 20 3 19.7761 3 19.5V5.5C3 5.22386 3.22386 5 3.5 5H8V4.5C8 4.22386 8.22386 4 8.5 4C8.77614 4 9 4.22386 9 4.5V5H15V4.5C15 4.22386 15.2239 4 15.5 4ZM8 6V6.63333C8 6.90948 8.22386 7.13333 8.5 7.13333C8.77614 7.13333 9 6.90948 9 6.63333V6H15V6.63333C15 6.90948 15.2239 7.13333 15.5 7.13333C15.7761 7.13333 16 6.90948 16 6.63333V6H20V19H4V6H8Z"/>
</symbol><symbol id="calendarDay" viewBox="0 0 24 24">
<path fill-rule="evenodd" clip-rule="evenodd" d="M15.5 4C15.7761 4 16 4.22386 16 4.5V5H20.5C20.7761 5 21 5.22386 21 5.5V19.5C21 19.7761 20.7761 20 20.5 20H3.5C3.22386 20 3 19.7761 3 19.5V5.5C3 5.22386 3.22386 5 3.5 5H8V4.5C8 4.22386 8.22386 4 8.5 4C8.77614 4 9 4.22386 9 4.5V5H15V4.5C15 4.22386 15.2239 4 15.5 4ZM8 6V6.63333C8 6.90948 8.22386 7.13333 8.5 7.13333C8.77614 7.13333 9 6.90948 9 6.63333V6H15V6.63333C15 6.90948 15.2239 7.13333 15.5 7.13333C15.7761 7.13333 16 6.90948 16 6.63333V6H20V19H4V6H8Z"/>
<path d="M17 16C17 16.5523 16.5523 17 16 17C15.4477 17 15 16.5523 15 16C15 15.4477 15.4477 15 16 15C16.5523 15 17 15.4477 17 16Z"/>
</symbol><symbol id="calendarMonth" viewBox="0 0 24 24">
<path fill-rule="evenodd" clip-rule="evenodd" d="M15.5 4C15.7761 4 16 4.22386 16 4.5V5H20.5C20.7761 5 21 5.22386 21 5.5V19.5C21 19.7761 20.7761 20 20.5 20H3.5C3.22386 20 3 19.7761 3 19.5V5.5C3 5.22386 3.22386 5 3.5 5H8V4.5C8 4.22386 8.22386 4 8.5 4C8.77614 4 9 4.22386 9 4.5V5H15V4.5C15 4.22386 15.2239 4 15.5 4ZM8 6V6.63333C8 6.90948 8.22386 7.13333 8.5 7.13333C8.77614 7.13333 9 6.90948 9 6.63333V6H15V6.63333C15 6.90948 15.2239 7.13333 15.5 7.13333C15.7761 7.13333 16 6.90948 16 6.63333V6H20V19H4V6H8Z"/>
<path d="M17 16C17 16.5523 16.5523 17 16 17C15.4477 17 15 16.5523 15 16C15 15.4477 15.4477 15 16 15C16.5523 15 17 15.4477 17 16Z"/>
<path d="M17 13C17 13.5523 16.5523 14 16 14C15.4477 14 15 13.5523 15 13C15 12.4477 15.4477 12 16 12C16.5523 12 17 12.4477 17 13Z"/>
<path d="M17 10C17 10.5523 16.5523 11 16 11C15.4477 11 15 10.5523 15 10C15 9.44772 15.4477 9 16 9C16.5523 9 17 9.44772 17 10Z"/>
<path d="M13 16C13 16.5523 12.5523 17 12 17C11.4477 17 11 16.5523 11 16C11 15.4477 11.4477 15 12 15C12.5523 15 13 15.4477 13 16Z"/>
<path d="M13 13C13 13.5523 12.5523 14 12 14C11.4477 14 11 13.5523 11 13C11 12.4477 11.4477 12 12 12C12.5523 12 13 12.4477 13 13Z"/>
<path d="M13 10C13 10.5523 12.5523 11 12 11C11.4477 11 11 10.5523 11 10C11 9.44772 11.4477 9 12 9C12.5523 9 13 9.44772 13 10Z"/>
<path d="M9 16C9 16.5523 8.55228 17 8 17C7.44772 17 7 16.5523 7 16C7 15.4477 7.44772 15 8 15C8.55228 15 9 15.4477 9 16Z"/>
<path d="M9 13C9 13.5523 8.55228 14 8 14C7.44772 14 7 13.5523 7 13C7 12.4477 7.44772 12 8 12C8.55228 12 9 12.4477 9 13Z"/>
<path d="M9 10C9 10.5523 8.55228 11 8 11C7.44772 11 7 10.5523 7 10C7 9.44772 7.44772 9 8 9C8.55228 9 9 9.44772 9 10Z"/>
</symbol><symbol id="calendarPeriod" viewBox="0 0 24 24">
<path d="M16 4.5C16 4.22386 15.7761 4 15.5 4C15.2239 4 15 4.22386 15 4.5V5H9V4.5C9 4.22386 8.77614 4 8.5 4C8.22386 4 8 4.22386 8 4.5V5H3.6C3.26863 5 3 5.26863 3 5.6V8.5C3 8.77614 3.22386 9 3.5 9C3.77614 9 4 8.77614 4 8.5V6H8V6.63333C8 6.90948 8.22386 7.13333 8.5 7.13333C8.77614 7.13333 9 6.90948 9 6.63333V6H15V6.63333C15 6.90948 15.2239 7.13333 15.5 7.13333C15.7761 7.13333 16 6.90948 16 6.63333V6H20V8.5C20 8.77614 20.2239 9 20.5 9C20.7761 9 21 8.77614 21 8.5V5.6C21 5.26863 20.7314 5 20.4 5H16V4.5Z"/>
<path d="M20 16.5C20 16.2239 20.2239 16 20.5 16C20.7761 16 21 16.2239 21 16.5V19.4C21 19.7314 20.7314 20 20.4 20H3.6C3.26863 20 3 19.7314 3 19.4V16.5C3 16.2239 3.22386 16 3.5 16C3.77614 16 4 16.2239 4 16.5V19H20V16.5Z"/>
<path d="M16.1464 14.1464C15.9512 14.3417 15.9512 14.6583 16.1464 14.8536C16.3417 15.0488 16.6583 15.0488 16.8536 14.8536L18.8536 12.8536C19.0488 12.6583 19.0488 12.3417 18.8536 12.1464L16.8536 10.1464C16.6583 9.95118 16.3417 9.95118 16.1464 10.1464C15.9512 10.3417 15.9512 10.6583 16.1464 10.8536L17.2929 12H6.70711L7.85355 10.8536C8.04882 10.6583 8.04882 10.3417 7.85355 10.1464C7.65829 9.95118 7.34171 9.95118 7.14645 10.1464L5.14645 12.1464C4.95118 12.3417 4.95118 12.6583 5.14645 12.8536L7.14645 14.8536C7.34171 15.0488 7.65829 15.0488 7.85355 14.8536C8.04882 14.6583 8.04882 14.3417 7.85355 14.1464L6.70711 13H17.2929L16.1464 14.1464Z"/>
</symbol><symbol id="calendarWeek" viewBox="0 0 24 24">
<path fill-rule="evenodd" clip-rule="evenodd" d="M15.5 4C15.7761 4 16 4.22386 16 4.5V5H20.5C20.7761 5 21 5.22386 21 5.5V19.5C21 19.7761 20.7761 20 20.5 20H3.5C3.22386 20 3 19.7761 3 19.5V5.5C3 5.22386 3.22386 5 3.5 5H8V4.5C8 4.22386 8.22386 4 8.5 4C8.77614 4 9 4.22386 9 4.5V5H15V4.5C15 4.22386 15.2239 4 15.5 4ZM8 6V6.63333C8 6.90948 8.22386 7.13333 8.5 7.13333C8.77614 7.13333 9 6.90948 9 6.63333V6H15V6.63333C15 6.90948 15.2239 7.13333 15.5 7.13333C15.7761 7.13333 16 6.90948 16 6.63333V6H20V19H4V6H8Z"/>
<path d="M17 13C17 13.5523 16.5523 14 16 14C15.4477 14 15 13.5523 15 13C15 12.4477 15.4477 12 16 12C16.5523 12 17 12.4477 17 13Z"/>
<path d="M13 13C13 13.5523 12.5523 14 12 14C11.4477 14 11 13.5523 11 13C11 12.4477 11.4477 12 12 12C12.5523 12 13 12.4477 13 13Z"/>
<path d="M9 13C9 13.5523 8.55228 14 8 14C7.44772 14 7 13.5523 7 13C7 12.4477 7.44772 12 8 12C8.55228 12 9 12.4477 9 13Z"/>
</symbol><symbol id="clock" viewBox="0 0 24 24">
<path fill-rule="evenodd" clip-rule="evenodd" d="M20 12C20 16.4183 16.4183 20 12 20C7.58172 20 4 16.4183 4 12C4 7.58172 7.58172 4 12 4C16.4183 4 20 7.58172 20 12ZM12 21C16.9706 21 21 16.9706 21 12C21 7.02944 16.9706 3 12 3C7.02944 3 3 7.02944 3 12C3 16.9706 7.02944 21 12 21ZM12 7.5C12 7.22386 11.7761 7 11.5 7C11.2239 7 11 7.22386 11 7.5V12.5C11 12.7761 11.2239 13 11.5 13H15.5C15.7761 13 16 12.7761 16 12.5C16 12.2239 15.7761 12 15.5 12H12V7.5Z"/>
</symbol><symbol id="close" viewBox="0 0 24 24">
<path fill-rule="evenodd" clip-rule="evenodd" d="M4.14645 4.14645C4.34171 3.95118 4.65829 3.95118 4.85355 4.14645L12 11.2929L19.1464 4.14645C19.3417 3.95118 19.6583 3.95118 19.8536 4.14645C20.0488 4.34171 20.0488 4.65829 19.8536 4.85355L12.7071 12L19.8536 19.1464C20.0488 19.3417 20.0488 19.6583 19.8536 19.8536C19.6583 20.0488 19.3417 20.0488 19.1464 19.8536L12 12.7071L4.85355 19.8536C4.65829 20.0488 4.34171 20.0488 4.14645 19.8536C3.95118 19.6583 3.95118 19.3417 4.14645 19.1464L11.2929 12L4.14645 4.85355C3.95118 4.65829 3.95118 4.34171 4.14645 4.14645Z"/>
</symbol><symbol id="comment" viewBox="0 0 24 24">
<path fill-rule="evenodd" clip-rule="evenodd" d="M7.5 9C6.67157 9 6 9.67157 6 10.5C6 11.3284 6.67157 12 7.5 12C8.32843 12 9 11.3284 9 10.5C9 9.67157 8.32843 9 7.5 9ZM7 10.5C7 10.2239 7.22386 10 7.5 10C7.77614 10 8 10.2239 8 10.5C8 10.7761 7.77614 11 7.5 11C7.22386 11 7 10.7761 7 10.5Z"/>
<path fill-rule="evenodd" clip-rule="evenodd" d="M10.5 10.5C10.5 9.67157 11.1716 9 12 9C12.8284 9 13.5 9.67157 13.5 10.5C13.5 11.3284 12.8284 12 12 12C11.1716 12 10.5 11.3284 10.5 10.5ZM12 10C11.7239 10 11.5 10.2239 11.5 10.5C11.5 10.7761 11.7239 11 12 11C12.2761 11 12.5 10.7761 12.5 10.5C12.5 10.2239 12.2761 10 12 10Z"/>
<path fill-rule="evenodd" clip-rule="evenodd" d="M16.5 9C15.6716 9 15 9.67157 15 10.5C15 11.3284 15.6716 12 16.5 12C17.3284 12 18 11.3284 18 10.5C18 9.67157 17.3284 9 16.5 9ZM16 10.5C16 10.2239 16.2239 10 16.5 10C16.7761 10 17 10.2239 17 10.5C17 10.7761 16.7761 11 16.5 11C16.2239 11 16 10.7761 16 10.5Z"/>
<path fill-rule="evenodd" clip-rule="evenodd" d="M3.5 4C3.22386 4 3 4.22386 3 4.5V16.5C3 16.7761 3.22386 17 3.5 17H8V19.5C8 19.6953 8.11367 19.8727 8.29107 19.9543C8.46847 20.0359 8.67714 20.0067 8.8254 19.8796L12.185 17H20.5C20.7761 17 21 16.7761 21 16.5V4.5C21 4.22386 20.7761 4 20.5 4H3.5ZM4 16V5H20V16H12C11.8806 16 11.7652 16.0427 11.6746 16.1204L9 18.4129V16.5C9 16.2239 8.77614 16 8.5 16H4Z"/>
</symbol><symbol id="comment_small" viewBox="0 0 24 24">
<path d="M7.5 8C7.22386 8 7 8.22386 7 8.5V13.5C7 13.7761 7.22386 14 7.5 14H9.5C9.77614 14 10 14.2239 10 14.5V15.7929C10 16.2383 10.5386 16.4614 10.8536 16.1464L12.8536 14.1464C12.9473 14.0527 13.0745 14 13.2071 14H16.5C16.7761 14 17 13.7761 17 13.5V8.5C17 8.22386 16.7761 8 16.5 8H7.5Z"/>
</symbol><symbol id="copy" viewBox="0 0 24 24">
<path d="M14.5 11C14.5 10.7239 14.2762 10.5 14 10.5C13.7239 10.5 13.5 10.7239 13.5 11V13.5H11C10.7239 13.5 10.5 13.7239 10.5 14C10.5 14.2761 10.7239 14.5 11 14.5H13.5V17C13.5 17.2761 13.7239 17.5 14 17.5C14.2762 17.5 14.5 17.2761 14.5 17V14.5H17C17.2761 14.5 17.5 14.2761 17.5 14C17.5 13.7239 17.2761 13.5 17 13.5H14.5V11Z"/>
<path fill-rule="evenodd" clip-rule="evenodd" d="M20.5 7H16V3.5C16 3.22386 15.7761 3 15.5 3H3.5C3.22386 3 3 3.22386 3 3.5V15.5C3 15.7761 3.22386 16 3.5 16H7V20.5C7 20.7761 7.22386 21 7.5 21H20.5C20.7761 21 21 20.7761 21 20.5V7.5C21 7.22386 20.7761 7 20.5 7ZM7.5 7H15V4H4V15H7V7.5C7 7.22386 7.22386 7 7.5 7ZM8 8V20H20V8H8Z"/>
</symbol><symbol id="copyLink" viewBox="0 0 24 24">
<path d="M14.642 10.1619C15.0658 9.73807 15.6407 9.49997 16.24 9.49997C16.8394 9.49997 17.4142 9.73807 17.8381 10.1619C18.2619 10.5857 18.5 11.1605 18.5 11.7599C18.5 12.3593 18.2619 12.9341 17.8381 13.358L15.8486 15.3474C15.6402 15.5596 15.3917 15.7282 15.1175 15.8434C14.8425 15.959 14.5472 16.0185 14.2489 16.0185C13.9506 16.0185 13.6552 15.959 13.3802 15.8434C13.1052 15.7278 12.856 15.5586 12.6473 15.3455C12.454 15.1482 12.4572 14.8317 12.6545 14.6384C12.8517 14.4452 13.1683 14.4484 13.3615 14.6456C13.4772 14.7637 13.6153 14.8575 13.7676 14.9215C13.92 14.9855 14.0836 15.0185 14.2489 15.0185C14.4141 15.0185 14.5777 14.9855 14.7301 14.9215C14.8825 14.8575 15.0205 14.7637 15.1362 14.6456L15.1398 14.642L17.131 12.6508C17.3672 12.4146 17.5 12.0941 17.5 11.7599C17.5 11.4258 17.3672 11.1053 17.131 10.869C16.8947 10.6327 16.5742 10.5 16.24 10.5C15.9059 10.5 15.5854 10.6327 15.3491 10.869L15.1002 11.1179C14.905 11.3132 14.5884 11.3132 14.3931 11.1179C14.1978 10.9226 14.1978 10.6061 14.3931 10.4108L14.642 10.1619Z"/>
<path d="M13.7511 11.9815C13.4528 11.9815 13.1575 12.041 12.8825 12.1566C12.6083 12.2718 12.3598 12.4404 12.1514 12.6526L10.1619 14.642C9.7381 15.0658 9.5 15.6407 9.5 16.24C9.5 16.8394 9.7381 17.4143 10.1619 17.8381C10.5857 18.2619 11.1606 18.5 11.76 18.5C12.3593 18.5 12.9342 18.2619 13.358 17.8381L13.6069 17.5892C13.8021 17.3939 13.8021 17.0773 13.6069 16.8821C13.4116 16.6868 13.095 16.6868 12.8998 16.8821L12.6509 17.131C12.4146 17.3673 12.0941 17.5 11.76 17.5C11.4258 17.5 11.1053 17.3673 10.869 17.131C10.6327 16.8947 10.5 16.5742 10.5 16.24C10.5 15.9059 10.6327 15.5854 10.869 15.3491L12.8602 13.358L12.8638 13.3543C12.9794 13.2363 13.1175 13.1425 13.2699 13.0785C13.4222 13.0145 13.5858 12.9815 13.7511 12.9815C13.9164 12.9815 14.08 13.0145 14.2324 13.0785C14.3847 13.1425 14.5228 13.2363 14.6384 13.3543C14.8317 13.5516 15.1483 13.5548 15.3455 13.3616C15.5428 13.1683 15.546 12.8517 15.3527 12.6545C15.144 12.4414 14.8948 12.2721 14.6198 12.1566C14.3447 12.041 14.0494 11.9815 13.7511 11.9815Z"/>
<path fill-rule="evenodd" clip-rule="evenodd" d="M16 7H20.5C20.7761 7 21 7.22386 21 7.5V20.5C21 20.7761 20.7761 21 20.5 21H7.5C7.22386 21 7 20.7761 7 20.5V16H3.5C3.22386 16 3 15.7761 3 15.5V3.5C3 3.22386 3.22386 3 3.5 3H15.5C15.7761 3 16 3.22386 16 3.5V7ZM15 7H7.5C7.22386 7 7 7.22386 7 7.5V15H4V4H15V7ZM8 20V8H20V20H8Z"/>
</symbol><symbol id="delete" viewBox="0 0 24 24">
<path d="M10 10.5C10.2761 10.5 10.5 10.7239 10.5 11V17C10.5 17.2761 10.2761 17.5 10 17.5C9.72386 17.5 9.5 17.2761 9.5 17V11C9.5 10.7239 9.72386 10.5 10 10.5Z"/>
<path d="M14.5 11C14.5 10.7239 14.2761 10.5 14 10.5C13.7239 10.5 13.5 10.7239 13.5 11V17C13.5 17.2761 13.7239 17.5 14 17.5C14.2761 17.5 14.5 17.2761 14.5 17V11Z"/>
<path fill-rule="evenodd" clip-rule="evenodd" d="M9 6.5L9.00002 3.49998C9.00003 3.22385 9.22388 3.00001 9.50001 3L14.5 3C14.7761 3 15 3.22386 15 3.5V6.5H20.5C20.7761 6.5 21 6.72386 21 7C21 7.27614 20.7761 7.5 20.5 7.5H18.9583L18 19C18 19.5304 17.7893 20.0391 17.4142 20.4142C17.0391 20.7893 16.5304 21 16 21H8C7.46957 21 6.96086 20.7893 6.58579 20.4142C6.21071 20.0391 6 19.5304 6 19L5.04167 7.5H3.5C3.22386 7.5 3 7.27614 3 7C3 6.72386 3.22386 6.5 3.5 6.5H9ZM10 4L14 4V6.5H10L10 4ZM6.04513 7.5H17.9549L17.0035 18.917C17.0012 18.9446 17 18.9723 17 19C17 19.2652 16.8946 19.5196 16.7071 19.7071C16.5196 19.8946 16.2652 20 16 20H8C7.73478 20 7.48043 19.8946 7.29289 19.7071C7.10536 19.5196 7 19.2652 7 19C7 18.9723 6.99885 18.9446 6.99655 18.917L6.04513 7.5Z"/>
</symbol><symbol id="download" viewBox="0 0 24 24">
  <path fill-rule="evenodd" clip-rule="evenodd" d="M12.5 4C12.5 3.72386 12.2761 3.5 12 3.5C11.7239 3.5 11.5 3.72386 11.5 4V14.7929L7.35355 10.6464C7.15829 10.4512 6.84171 10.4512 6.64645 10.6464C6.45118 10.8417 6.45118 11.1583 6.64645 11.3536L11.6464 16.3536C11.6944 16.4015 11.7496 16.4377 11.8086 16.4621C11.8667 16.4861 11.9303 16.4996 11.997 16.5C11.998 16.5 11.999 16.5 12 16.5C12.001 16.5 12.002 16.5 12.003 16.5C12.0697 16.4996 12.1333 16.4861 12.1914 16.4621C12.2504 16.4377 12.3056 16.4015 12.3536 16.3536L17.3536 11.3536C17.5488 11.1583 17.5488 10.8417 17.3536 10.6464C17.1583 10.4512 16.8417 10.4512 16.6464 10.6464L12.5 14.7929V4ZM4 16.5C4.27614 16.5 4.5 16.7239 4.5 17V20.5H19.5V17C19.5 16.7239 19.7239 16.5 20 16.5C20.2761 16.5 20.5 16.7239 20.5 17V20.5C20.5 21.0523 20.0523 21.5 19.5 21.5H4.5C3.94772 21.5 3.5 21.0523 3.5 20.5V17C3.5 16.7239 3.72386 16.5 4 16.5Z"/>
</symbol><symbol id="edit" viewBox="0 0 24 24">
<path fill-rule="evenodd" clip-rule="evenodd" d="M18.9324 2C18.5296 2 18.1307 2.07935 17.7585 2.23351C17.3863 2.38767 17.0481 2.61363 16.7633 2.89848L4.50814 15.1536C4.44661 15.2151 4.40221 15.2917 4.37931 15.3756L3.01763 20.3684C2.97042 20.5415 3.01958 20.7267 3.14646 20.8536C3.27333 20.9804 3.45846 21.0296 3.63157 20.9824L8.6244 19.6207C8.70835 19.5978 8.78487 19.5534 8.8464 19.4919L21.1015 7.23674C21.3864 6.95189 21.6123 6.61372 21.7665 6.24154C21.9207 5.86935 22 5.47045 22 5.06761C22 4.66477 21.9207 4.26587 21.7665 3.89369C21.6123 3.52151 21.3864 3.18334 21.1015 2.89848C20.8167 2.61363 20.4785 2.38767 20.1063 2.23351C19.7341 2.07935 19.3352 2 18.9324 2ZM18.1412 3.15739C18.392 3.05348 18.6609 3 18.9324 3C19.2039 3 19.4728 3.05348 19.7236 3.15739C19.9745 3.26129 20.2024 3.41359 20.3944 3.60559C20.5864 3.79759 20.7387 4.02552 20.8426 4.27637C20.9465 4.52722 21 4.79609 21 5.06761C21 5.33914 20.9465 5.608 20.8426 5.85885C20.7387 6.1097 20.5864 6.33764 20.3944 6.52963L19.1691 7.75494L16.2451 4.83089L17.4704 3.60559C17.6624 3.41359 17.8903 3.26129 18.1412 3.15739ZM15.538 5.538L5.30914 15.7668L4.21262 19.7874L8.23318 18.6909L18.462 8.46204L15.538 5.538Z"/>
</symbol><symbol id="fontSize" viewBox="0 0 24 24">
<path d="M3.5 4C3.22386 4 3 4.22386 3 4.5C3 4.77614 3.22386 5 3.5 5H9V19.5C9 19.7761 9.22386 20 9.5 20C9.77614 20 10 19.7761 10 19.5V5H15.5C15.7761 5 16 4.77614 16 4.5C16 4.22386 15.7761 4 15.5 4H3.5Z"/>
<path d="M13.5 12C13.2239 12 13 12.2239 13 12.5C13 12.7761 13.2239 13 13.5 13H16V19.5C16 19.7761 16.2239 20 16.5 20C16.7761 20 17 19.7761 17 19.5V13H19.5C19.7761 13 20 12.7761 20 12.5C20 12.2239 19.7761 12 19.5 12H13.5Z"/>
</symbol><symbol id="graphDisplay" viewBox="0 0 24 24">
<path fill-rule="evenodd" clip-rule="evenodd" d="M15.75 20C15.4739 20 15.25 19.7761 15.25 19.5L15.25 4.5C15.25 4.22386 15.4739 4 15.75 4C16.0261 4 16.25 4.22386 16.25 4.5L16.25 19.5C16.25 19.7761 16.0261 20 15.75 20ZM19.5 20C19.2239 20 19 19.7761 19 19.5V12.5C19 12.2239 19.2239 12 19.5 12C19.7761 12 20 12.2239 20 12.5V19.5C20 19.7761 19.7761 20 19.5 20ZM7.75 19.5C7.75 19.7761 7.97386 20 8.25 20C8.52614 20 8.75 19.7761 8.75 19.5V15.5C8.75 15.2239 8.52614 15 8.25 15C7.97386 15 7.75 15.2239 7.75 15.5L7.75 19.5ZM12 20C11.7239 20 11.5 19.7761 11.5 19.5L11.5 8.5C11.5 8.22386 11.7239 8 12 8C12.2761 8 12.5 8.22386 12.5 8.5V19.5C12.5 19.7761 12.2761 20 12 20ZM4 19.5C4 19.7761 4.22386 20 4.5 20C4.77614 20 5 19.7761 5 19.5L5 12.5C5 12.2239 4.77614 12 4.5 12C4.22386 12 4 12.2239 4 12.5V19.5Z"/>
</symbol><symbol id="graphDisplayHidden" viewBox="0 0 24 24">
  <path fill-rule="evenodd" clip-rule="evenodd" d="M3.354 2.646a.5.5 0 10-.708.708l8.854 8.853V19.5a.5.5 0 001 0v-6.293l2.5 2.5V19.5a.5.5 0 001 0v-2.793l4.646 4.647a.5.5 0 00.708-.708l-18-18zM15 10.989l1 1V7.5a.5.5 0 00-1 0v3.489zM19 14.993l1 1.001V12.5a.5.5 0 00-1 0v2.493zM11.5 7.485l1 1V4.5a.5.5 0 00-1 0v2.985z"/>
  <path fill-rule="evenodd" clip-rule="evenodd" d="M8.25 20a.5.5 0 01-.5-.5v-8a.5.5 0 011 0v8a.5.5 0 01-.5.5zM4.5 20a.5.5 0 01-.5-.5v-5a.5.5 0 011 0v5a.5.5 0 01-.5.5z"/>
</symbol><symbol id="heading1" viewBox="0 0 24 24">
<path fill-rule="evenodd" clip-rule="evenodd" d="M4.5 5C4.5 4.72386 4.27614 4.5 4 4.5C3.72386 4.5 3.5 4.72386 3.5 5V12V19C3.5 19.2761 3.72386 19.5 4 19.5C4.27614 19.5 4.5 19.2761 4.5 19V12.5H11.5V19C11.5 19.2761 11.7239 19.5 12 19.5C12.2761 19.5 12.5 19.2761 12.5 19V12V5C12.5 4.72386 12.2761 4.5 12 4.5C11.7239 4.5 11.5 4.72386 11.5 5V11.5H4.5V5ZM19.5 11C19.5 10.7978 19.3782 10.6154 19.1913 10.5381C19.0045 10.4607 18.7894 10.5034 18.6464 10.6464L16.6464 12.6464C16.4512 12.8417 16.4512 13.1583 16.6464 13.3536C16.8417 13.5488 17.1583 13.5488 17.3536 13.3536L18.5 12.2071V19C18.5 19.2761 18.7239 19.5 19 19.5C19.2761 19.5 19.5 19.2761 19.5 19V11Z"/>
</symbol><symbol id="heading2" viewBox="0 0 24 24">
<path fill-rule="evenodd" clip-rule="evenodd" d="M4.5 5C4.5 4.72386 4.27614 4.5 4 4.5C3.72386 4.5 3.5 4.72386 3.5 5V12V19C3.5 19.2761 3.72386 19.5 4 19.5C4.27614 19.5 4.5 19.2761 4.5 19V12.5H11.5V19C11.5 19.2761 11.7239 19.5 12 19.5C12.2761 19.5 12.5 19.2761 12.5 19V12V5C12.5 4.72386 12.2761 4.5 12 4.5C11.7239 4.5 11.5 4.72386 11.5 5V11.5H4.5V5ZM19 11.5C18.6022 11.5 18.2206 11.658 17.9393 11.9393C17.658 12.2206 17.5 12.6022 17.5 13C17.5 13.2761 17.2761 13.5 17 13.5C16.7239 13.5 16.5 13.2761 16.5 13C16.5 12.337 16.7634 11.7011 17.2322 11.2322C17.7011 10.7634 18.337 10.5 19 10.5C19.663 10.5 20.2989 10.7634 20.7678 11.2322C21.2366 11.7011 21.5 12.337 21.5 13C21.5 13.4025 21.3613 13.8103 21.1929 14.1634C21.0211 14.5236 20.7982 14.8681 20.5861 15.1551L20.5805 15.1627L20.5805 15.1627L18.0149 18.501H21C21.2761 18.501 21.5 18.7249 21.5 19.001C21.5 19.2771 21.2761 19.501 21 19.501H17C16.8096 19.501 16.6357 19.3928 16.5515 19.222C16.4673 19.0511 16.4875 18.8473 16.6036 18.6963L19.7846 14.5571C19.9706 14.305 20.1546 14.0175 20.2903 13.7329C20.4302 13.4397 20.5 13.1885 20.5 13C20.5 12.6022 20.342 12.2206 20.0607 11.9393C19.7794 11.658 19.3978 11.5 19 11.5Z"/>
</symbol><symbol id="heading3" viewBox="0 0 24 24">
<path fill-rule="evenodd" clip-rule="evenodd" d="M4.5 5C4.5 4.72386 4.27614 4.5 4 4.5C3.72386 4.5 3.5 4.72386 3.5 5V12V19C3.5 19.2761 3.72386 19.5 4 19.5C4.27614 19.5 4.5 19.2761 4.5 19V12.5H11.5V19C11.5 19.2761 11.7239 19.5 12 19.5C12.2761 19.5 12.5 19.2761 12.5 19V12V5C12.5 4.72386 12.2761 4.5 12 4.5C11.7239 4.5 11.5 4.72386 11.5 5V11.5H4.5V5ZM18.0433 10.6903C18.5001 10.5011 19.0028 10.4516 19.4877 10.548C19.9727 10.6445 20.4181 10.8826 20.7678 11.2322C21.1174 11.5819 21.3555 12.0273 21.452 12.5123C21.5484 12.9972 21.4989 13.4999 21.3097 13.9567C21.1379 14.3715 20.8579 14.7316 20.5 15C20.8579 15.2684 21.1379 15.6285 21.3097 16.0433C21.4989 16.5001 21.5484 17.0028 21.452 17.4877C21.3555 17.9727 21.1174 18.4181 20.7678 18.7678C20.4181 19.1174 19.9727 19.3555 19.4877 19.452C19.0028 19.5484 18.5001 19.4989 18.0433 19.3097C17.5865 19.1205 17.196 18.8 16.9213 18.3889C16.6466 17.9778 16.5 17.4945 16.5 17C16.5 16.7239 16.7239 16.5 17 16.5C17.2761 16.5 17.5 16.7239 17.5 17C17.5 17.2967 17.588 17.5867 17.7528 17.8334C17.9176 18.08 18.1519 18.2723 18.426 18.3858C18.7001 18.4994 19.0017 18.5291 19.2926 18.4712C19.5836 18.4133 19.8509 18.2704 20.0607 18.0607C20.2704 17.8509 20.4133 17.5836 20.4712 17.2926C20.5291 17.0017 20.4994 16.7001 20.3858 16.426C20.2723 16.1519 20.08 15.9176 19.8334 15.7528C19.5867 15.588 19.2967 15.5 19 15.5C18.7239 15.5 18.5 15.2761 18.5 15C18.5 14.7239 18.7239 14.5 19 14.5C19.2967 14.5 19.5867 14.412 19.8334 14.2472C20.08 14.0824 20.2723 13.8481 20.3858 13.574C20.4994 13.2999 20.5291 12.9983 20.4712 12.7074C20.4133 12.4164 20.2704 12.1491 20.0607 11.9393C19.8509 11.7296 19.5836 11.5867 19.2926 11.5288C19.0017 11.4709 18.7001 11.5007 18.426 11.6142C18.1519 11.7277 17.9176 11.92 17.7528 12.1666C17.588 12.4133 17.5 12.7033 17.5 13C17.5 13.2761 17.2761 13.5 17 13.5C16.7239 13.5 16.5 13.2761 16.5 13C16.5 12.5055 16.6466 12.0222 16.9213 11.6111C17.196 11.2 17.5865 10.8795 18.0433 10.6903Z"/>
</symbol><symbol id="hide" viewBox="0 0 24 24">
<path fill-rule="evenodd" clip-rule="evenodd" d="M2.13702 2.65613C2.32694 2.45566 2.64341 2.44711 2.84387 2.63702L12.3446 11.6377L17.4726 16.4621C17.5117 16.4989 17.5442 16.5413 17.5693 16.5874L21.8439 20.637C22.0443 20.8269 22.0529 21.1434 21.863 21.3439C21.6731 21.5443 21.3566 21.5529 21.1561 21.363L17.0578 17.4803C15.5701 18.443 13.8138 18.9722 12.0077 18.9999L12 19.0001C8.78924 19.0001 6.29411 17.2741 4.62878 15.6029C3.79259 14.7638 3.15289 13.9263 2.72202 13.2986C2.50628 12.9844 2.34211 12.7215 2.2311 12.5359C2.17558 12.443 2.13331 12.3694 2.10448 12.3181C2.09006 12.2925 2.07901 12.2725 2.07133 12.2584L2.06236 12.2419L2.05979 12.2371L2.05897 12.2356C2.05886 12.2354 2.05848 12.2347 2.5 12L2.05848 12.2347C1.97802 12.0833 1.98074 11.9012 2.06568 11.7523C3.08295 9.96876 4.45955 8.39362 6.11477 7.11327L2.15613 3.36298C1.95566 3.17306 1.94711 2.8566 2.13702 2.65613ZM13.4346 14.0478L11.6584 12.3651L9.873 10.6854C9.63635 11.0674 9.5 11.5175 9.5 12C9.5 12.7404 9.8212 13.4051 10.3335 13.8635C10.7761 14.2597 11.3594 14.5 12 14.5C12.5338 14.5 13.0283 14.333 13.4346 14.0478ZM14.171 14.7455C13.5746 15.2176 12.8201 15.5 12 15.5C11.1039 15.5 10.2854 15.1626 9.66654 14.6087C8.9513 13.9685 8.5 13.0366 8.5 12C8.5 11.2524 8.73481 10.559 9.13417 9.99036L6.83138 7.82393C5.30815 8.98129 4.03445 10.3997 3.07739 12.0026L3.08939 12.0227C3.19092 12.1925 3.34386 12.4375 3.54645 12.7327C3.95223 13.3238 4.554 14.1112 5.33713 14.8971C6.90973 16.4752 9.16327 17.9986 11.9962 18C13.5338 17.9757 15.0267 17.5466 16.3081 16.7701L14.171 14.7455Z"/>
<path fill-rule="evenodd" clip-rule="evenodd" d="M21.5 12L21.9415 11.7654C22.0218 11.9165 22.0193 12.0982 21.9347 12.247C21.3927 13.201 20.7466 14.0985 20.0072 14.9252C19.9173 15.0257 19.7907 15.0856 19.656 15.0914C19.5213 15.0972 19.3899 15.0483 19.2918 14.9559L9.84359 6.05903C9.70864 5.93196 9.65507 5.74067 9.70438 5.56199C9.7537 5.38332 9.89781 5.24658 10.0788 5.20672C10.7089 5.06797 11.3538 4.99863 12.0006 5.00002C15.211 5.00022 17.706 6.72601 19.3712 8.39708C20.2074 9.2362 20.8471 10.0738 21.278 10.7014C21.4937 11.0157 21.6579 11.2785 21.7689 11.4641C21.8244 11.557 21.8667 11.6306 21.8955 11.6819C21.9099 11.7075 21.921 11.7276 21.9287 11.7416L21.9376 11.7581L21.9402 11.7629L21.941 11.7644L21.9415 11.7654C21.9416 11.7656 21.9415 11.7654 21.5 12ZM11.2735 6.03191L19.5974 13.8701C20.0901 13.279 20.5333 12.653 20.9229 11.9979L20.9106 11.9773C20.8091 11.8075 20.6561 11.5625 20.4536 11.2674C20.0478 10.6763 19.446 9.88882 18.6629 9.10295C17.0896 7.52412 14.8347 6.00002 12 6.00002L11.9989 6.00002C11.7565 5.99948 11.5144 6.01015 11.2735 6.03191Z"/>
</symbol><symbol id="history" viewBox="0 0 24 24">
<path fill-rule="evenodd" clip-rule="evenodd" d="M11.9066 20.4115C13.9949 20.4354 16.0189 19.6895 17.5925 18.3163C19.166 16.9432 20.179 15.0387 20.438 12.9664C20.697 10.894 20.1841 8.79883 18.997 7.08055C17.8098 5.36227 16.0317 4.14118 14.0017 3.65024C11.9718 3.15931 9.83211 3.4329 7.991 4.41882C6.36436 5.28988 5.07136 6.6631 4.298 8.32411H8.04997C8.32611 8.32411 8.54997 8.54796 8.54997 8.82411C8.54997 9.10025 8.32611 9.32411 8.04997 9.32411H3.56155C3.55382 9.32429 3.54606 9.32429 3.53829 9.32411H3.04997C2.77382 9.32411 2.54997 9.10025 2.54997 8.82411V3.82411C2.54997 3.54796 2.77382 3.32411 3.04997 3.32411C3.32611 3.32411 3.54997 3.54796 3.54997 3.82411V7.57779C4.4271 5.86696 5.80786 4.45353 7.51892 3.53726C9.57664 2.43535 11.968 2.12957 14.2368 2.67827C16.5056 3.22696 18.4929 4.59171 19.8197 6.51214C21.1465 8.43256 21.7198 10.7742 21.4303 13.0904C21.1408 15.4065 20.0087 17.535 18.25 19.0698C16.4913 20.6045 14.2292 21.4381 11.8951 21.4114C9.56111 21.3848 7.31859 20.4998 5.59542 18.9253C3.87226 17.3507 2.78908 15.1969 2.55254 12.8748C2.52456 12.6001 2.72458 12.3547 2.9993 12.3267C3.27402 12.2987 3.51941 12.4987 3.54739 12.7734C3.75903 14.8512 4.7282 16.7782 6.26997 18.187C7.81175 19.5958 9.81821 20.3877 11.9066 20.4115ZM12.4999 8C12.4999 7.72386 12.2761 7.5 11.9999 7.5C11.7238 7.5 11.4999 7.72386 11.4999 8V12C11.4999 12.1326 11.5526 12.2598 11.6464 12.3536L13.6464 14.3536C13.8416 14.5488 14.1582 14.5488 14.3535 14.3536C14.5488 14.1583 14.5488 13.8417 14.3535 13.6464L12.4999 11.7929V8Z"/>
  </symbol><symbol id="info" viewBox="0 0 24 24">
<path fill-rule="evenodd" clip-rule="evenodd" d="M12 20C16.4183 20 20 16.4183 20 12C20 7.58172 16.4183 4 12 4C7.58172 4 4 7.58172 4 12C4 16.4183 7.58172 20 12 20ZM21 12C21 16.9706 16.9706 21 12 21C7.02944 21 3 16.9706 3 12C3 7.02944 7.02944 3 12 3C16.9706 3 21 7.02944 21 12ZM12 7.95001C12.2761 7.95001 12.5 8.17387 12.5 8.45001V8.55001C12.5 8.82615 12.2761 9.05001 12 9.05001C11.7239 9.05001 11.5 8.82615 11.5 8.55001V8.45001C11.5 8.17387 11.7239 7.95001 12 7.95001ZM12.5 10.5C12.5 10.2239 12.2761 10 12 10C11.7239 10 11.5 10.2239 11.5 10.5V15.5C11.5 15.7761 11.7239 16 12 16C12.2761 16 12.5 15.7761 12.5 15.5V10.5Z"/>
</symbol><symbol id="italic" viewBox="0 0 24 24">
<path id="Union" d="M9.99994 4.5C9.99994 4.22386 10.2238 4 10.4999 4H17.4999C17.7761 4 17.9999 4.22386 17.9999 4.5C17.9999 4.77614 17.7761 5 17.4999 5H14.52L10.52 19H13.5C13.7761 19 14 19.2239 14 19.5C14 19.7761 13.7761 20 13.5 20H6.5C6.22386 20 6 19.7761 6 19.5C6 19.2239 6.22386 19 6.5 19H9.48001L13.48 5H10.4999C10.2238 5 9.99994 4.77614 9.99994 4.5Z"/>
</symbol><symbol id="link" viewBox="0 0 24 24">
<path d="M16.5 3.46448C15.4297 3.46448 14.4033 3.88965 13.6464 4.64646L13.1464 5.14646C12.9512 5.34172 12.9512 5.6583 13.1464 5.85356C13.3417 6.04883 13.6583 6.04883 13.8536 5.85356L14.3536 5.35356C14.9228 4.78429 15.6949 4.46448 16.5 4.46448C17.3051 4.46448 18.0772 4.78429 18.6464 5.35356C19.2157 5.92284 19.5355 6.69494 19.5355 7.50001C19.5355 8.30509 19.2157 9.07719 18.6464 9.64646L14.6464 13.6465L14.6429 13.6501C14.3635 13.9352 14.0301 14.1617 13.6622 14.3163C13.2942 14.4709 12.8991 14.5505 12.5 14.5505C12.1009 14.5505 11.7058 14.4709 11.3378 14.3163C10.9699 14.1617 10.6365 13.9352 10.3571 13.6501C10.1639 13.4528 9.84732 13.4496 9.65007 13.6429C9.45283 13.8361 9.4496 14.1527 9.64286 14.3499C10.0153 14.7301 10.4598 15.032 10.9504 15.2382C11.441 15.4443 11.9678 15.5505 12.5 15.5505C13.0322 15.5505 13.559 15.4443 14.0496 15.2382C14.5394 15.0324 14.9832 14.7311 15.3553 14.3518L19.3536 10.3536C20.1104 9.59676 20.5355 8.5703 20.5355 7.50001C20.5355 6.42972 20.1104 5.40327 19.3536 4.64646C18.5967 3.88965 17.5703 3.46448 16.5 3.46448Z"/>
<path d="M11.5 8.44949C10.9679 8.44949 10.441 8.55568 9.95044 8.76183C9.46064 8.96765 9.01676 9.26897 8.64471 9.6482L4.64646 13.6465C3.88965 14.4033 3.46448 15.4297 3.46448 16.5C3.46448 17.5703 3.88965 18.5967 4.64646 19.3536C5.40327 20.1104 6.42972 20.5355 7.50001 20.5355C8.5703 20.5355 9.59676 20.1104 10.3536 19.3536L10.8536 18.8536C11.0488 18.6583 11.0488 18.3417 10.8536 18.1465C10.6583 17.9512 10.3417 17.9512 10.1465 18.1465L9.64646 18.6465C9.07719 19.2157 8.30509 19.5355 7.50001 19.5355C6.69494 19.5355 5.92284 19.2157 5.35356 18.6465C4.78429 18.0772 4.46448 17.3051 4.46448 16.5C4.46448 15.6949 4.78429 14.9228 5.35356 14.3536L9.35356 10.3536L9.35715 10.3499C9.63648 10.0648 9.96988 9.83836 10.3378 9.68375C10.7058 9.52913 11.1009 9.44949 11.5 9.44949C11.8991 9.44949 12.2942 9.52913 12.6622 9.68375C13.0301 9.83836 13.3635 10.0648 13.6429 10.3499C13.8361 10.5472 14.1527 10.5504 14.3499 10.3571C14.5472 10.1639 14.5504 9.84732 14.3572 9.65008C13.9847 9.26996 13.5402 8.96799 13.0496 8.76183C12.559 8.55568 12.0322 8.44949 11.5 8.44949Z"/>
</symbol><symbol id="move" viewBox="0 0 24 24">
<path fill-rule="evenodd" clip-rule="evenodd" d="M15.1464 6.35355C15.3417 6.54882 15.6583 6.54882 15.8536 6.35355C16.0488 6.15829 16.0488 5.84171 15.8536 5.64645L12.3536 2.14645C12.1583 1.95118 11.8417 1.95118 11.6464 2.14645L8.14645 5.64645C7.95118 5.84171 7.95118 6.15829 8.14645 6.35355C8.34171 6.54882 8.65829 6.54882 8.85355 6.35355L12 3.20711L15.1464 6.35355ZM4.5 9C4.22386 9 4 9.22386 4 9.5C4 9.77614 4.22386 10 4.5 10H19.5C19.7761 10 20 9.77614 20 9.5C20 9.22386 19.7761 9 19.5 9H4.5ZM4.5 14C4.22386 14 4 14.2239 4 14.5C4 14.7761 4.22386 15 4.5 15H19.5C19.7761 15 20 14.7761 20 14.5C20 14.2239 19.7761 14 19.5 14H4.5ZM8.14645 17.6464C8.34171 17.4512 8.65829 17.4512 8.85355 17.6464L12 20.7929L15.1464 17.6464C15.3417 17.4512 15.6583 17.4512 15.8536 17.6464C16.0488 17.8417 16.0488 18.1583 15.8536 18.3536L12.3536 21.8536C12.1583 22.0488 11.8417 22.0488 11.6464 21.8536L8.14645 18.3536C7.95118 18.1583 7.95118 17.8417 8.14645 17.6464Z"/>
</symbol><symbol id="news" viewBox="0 0 24 24">
<path fill-rule="evenodd" clip-rule="evenodd" d="M8.25 13.375C8.52614 13.375 8.75 13.5989 8.75 13.875C8.75 14.8264 8.75522 15.827 9.1073 16.7424C9.44624 17.6236 10.1229 18.4606 11.5607 19.0358C11.8171 19.1383 11.9418 19.4293 11.8392 19.6857C11.7367 19.9421 11.4457 20.0668 11.1893 19.9642C9.50214 19.2894 8.61626 18.2514 8.17395 17.1014C7.74986 15.9987 7.74994 14.8267 7.75 13.9079C7.75 13.8969 7.75 13.8859 7.75 13.875C7.75 13.5989 7.97386 13.375 8.25 13.375Z"/>
<path fill-rule="evenodd" clip-rule="evenodd" d="M8.25 7.125C8.52614 7.125 8.75 7.34886 8.75 7.625V13.875C8.75 14.1511 8.52614 14.375 8.25 14.375C7.97386 14.375 7.75 14.1511 7.75 13.875V7.625C7.75 7.34886 7.97386 7.125 8.25 7.125Z"/>
<path fill-rule="evenodd" clip-rule="evenodd" d="M19 8.875C19 8.59886 19.2239 8.375 19.5 8.375C19.824 8.375 20.1455 8.43479 20.4464 8.55164C20.7473 8.66849 21.0227 8.84054 21.2562 9.05941C21.4897 9.27834 21.6768 9.54002 21.8051 9.8304C21.9335 10.1209 22 10.4335 22 10.75C22 11.0665 21.9335 11.3791 21.8051 11.6696C21.6768 11.96 21.4897 12.2217 21.2562 12.4406C21.0227 12.6595 20.7473 12.8315 20.4464 12.9484C20.1455 13.0652 19.824 13.125 19.5 13.125C19.2239 13.125 19 12.9011 19 12.625C19 12.3489 19.2239 12.125 19.5 12.125C19.7013 12.125 19.9 12.0878 20.0844 12.0162C20.2687 11.9446 20.4343 11.8404 20.5722 11.7111C20.7101 11.5818 20.8177 11.43 20.8904 11.2655C20.9631 11.101 21 10.9259 21 10.75C21 10.5741 20.9631 10.399 20.8904 10.2345C20.8177 10.07 20.7101 9.91823 20.5722 9.78894C20.4343 9.6596 20.2687 9.55542 20.0844 9.48382C19.9 9.41221 19.7013 9.375 19.5 9.375C19.2239 9.375 19 9.15114 19 8.875Z"/>
<path fill-rule="evenodd" clip-rule="evenodd" d="M19.7311 4.05661C19.8964 4.14274 20 4.31364 20 4.5V17C20 17.1888 19.8936 17.3616 19.725 17.4465C19.5564 17.5315 19.3542 17.5142 19.2025 17.4018C16.5598 15.4452 13.3527 14.3838 10.055 14.375H4.38889C3.7565 14.375 3.14928 14.1257 2.701 13.6807C2.25259 13.2356 2 12.6311 2 12V9.5C2 8.86892 2.25259 8.26443 2.701 7.81932C3.14928 7.37433 3.7565 7.125 4.38889 7.125H10.048C13.3368 7.02508 16.5236 5.96978 19.2136 4.09014C19.3664 3.9834 19.5658 3.97048 19.7311 4.05661ZM19 5.42895C16.3224 7.09658 13.2408 8.02985 10.0705 8.12478L10.0556 8.125H4.38889C4.01935 8.125 3.66568 8.27076 3.40549 8.52903C3.14543 8.78718 3 9.13652 3 9.5V12C3 12.3635 3.14543 12.7128 3.40549 12.971C3.66568 13.2292 4.01935 13.375 4.38889 13.375H10.0569C13.2423 13.3834 16.349 14.3143 19 16.0435V5.42895Z"/>
</symbol><symbol id="numberList" viewBox="0 0 24 24">
<path d="M6.5 4C6.5 3.79777 6.37818 3.61545 6.19134 3.53806C6.0045 3.46067 5.78945 3.50345 5.64645 3.64645L3.64645 5.64645C3.45118 5.84171 3.45118 6.15829 3.64645 6.35355C3.84171 6.54881 4.15829 6.54881 4.35355 6.35355L5.5 5.20711V10C5.5 10.2761 5.72386 10.5 6 10.5C6.27614 10.5 6.5 10.2761 6.5 10V4Z"/>
<path d="M10.5 6C10.5 5.72386 10.7239 5.5 11 5.5H20C20.2761 5.5 20.5 5.72386 20.5 6C20.5 6.27614 20.2761 6.5 20 6.5H11C10.7239 6.5 10.5 6.27614 10.5 6Z"/>
<path d="M10.5 12C10.5 11.7239 10.7239 11.5 11 11.5H20C20.2761 11.5 20.5 11.7239 20.5 12C20.5 12.2761 20.2761 12.5 20 12.5H11C10.7239 12.5 10.5 12.2761 10.5 12Z"/>
<path d="M12 17.5C11.7239 17.5 11.5 17.7239 11.5 18C11.5 18.2761 11.7239 18.5 12 18.5H20C20.2761 18.5 20.5 18.2761 20.5 18C20.5 17.7239 20.2761 17.5 20 17.5H12Z"/>
<path d="M6.00003 14.5C5.6022 14.5 5.22067 14.658 4.93937 14.9393C4.65806 15.2206 4.50003 15.6022 4.50003 16C4.50003 16.2761 4.27617 16.5 4.00003 16.5C3.72388 16.5 3.50003 16.2761 3.50003 16C3.50003 15.337 3.76342 14.7011 4.23226 14.2322C4.7011 13.7634 5.33698 13.5 6.00003 13.5C6.66307 13.5 7.29895 13.7634 7.76779 14.2322C8.23663 14.7011 8.50003 15.337 8.50003 16C8.50003 16.4503 8.30527 16.8072 8.08068 17.093C7.91562 17.3031 7.70313 17.5108 7.51113 17.6984C7.45646 17.7519 7.40335 17.8038 7.35358 17.8536C7.34289 17.8642 7.33173 17.8744 7.32012 17.8841L5.38105 19.5H8.00003C8.27617 19.5 8.50003 19.7239 8.50003 20C8.50003 20.2761 8.27617 20.5 8.00003 20.5H4.00003C3.78952 20.5 3.60155 20.3681 3.52989 20.1702C3.45823 19.9723 3.51822 19.7507 3.67993 19.6159L6.66265 17.1303C6.72758 17.0655 6.78881 17.0056 6.84658 16.9491C7.02658 16.7728 7.17354 16.629 7.29437 16.4752C7.44478 16.2838 7.50003 16.1407 7.50003 16C7.50003 15.6022 7.34199 15.2206 7.06069 14.9393C6.77938 14.658 6.39785 14.5 6.00003 14.5Z"/>
</symbol><symbol id="openInNewTab" viewBox="0 0 24 24">
  <path fill-rule="evenodd" clip-rule="evenodd" d="M4.5 5C4.5 4.72386 4.72386 4.5 5 4.5H9C9.27614 4.5 9.5 4.72386 9.5 5C9.5 5.27614 9.27614 5.5 9 5.5H5.5V18.5H18.5V15C18.5 14.7239 18.7239 14.5 19 14.5C19.2761 14.5 19.5 14.7239 19.5 15V19C19.5 19.2761 19.2761 19.5 19 19.5H5C4.72386 19.5 4.5 19.2761 4.5 19V5ZM12.5 4.50004L19 4.50003C19.1326 4.50003 19.2597 4.55271 19.3535 4.64647C19.4473 4.74024 19.5 4.86742 19.5 5.00003L19.5 11.5C19.5 11.7761 19.2761 12 19 12C18.7238 12 18.5 11.7761 18.5 11.5L18.5 6.12669L8.83546 14.8708C8.63069 15.056 8.3145 15.0402 8.12923 14.8355C7.94396 14.6307 7.95977 14.3145 8.16454 14.1292L17.7021 5.50003L12.5 5.50004C12.2239 5.50004 12 5.27619 12 5.00004C12 4.7239 12.2239 4.50004 12.5 4.50004Z"/>
</symbol><symbol id="personalization" viewBox="0 0 24 24">
<path fill-rule="evenodd" clip-rule="evenodd" d="M5.5 3C5.77614 3 6 3.22386 6 3.5V8.5C6 8.51671 5.99918 8.53323 5.99758 8.54952C7.1399 8.78022 8 9.78967 8 11C8 12.2103 7.1399 13.2198 5.99758 13.4505C5.99918 13.4668 6 13.4833 6 13.5V20.5C6 20.7761 5.77614 21 5.5 21C5.22386 21 5 20.7761 5 20.5V13.5C5 13.4833 5.00082 13.4668 5.00242 13.4505C3.86009 13.2198 3 12.2103 3 11C3 9.78967 3.86009 8.78022 5.00242 8.54952C5.00082 8.53323 5 8.51671 5 8.5V3.5C5 3.22386 5.22386 3 5.5 3ZM5.5 9.5C4.67157 9.5 4 10.1716 4 11C4 11.8284 4.67157 12.5 5.5 12.5C6.32843 12.5 7 11.8284 7 11C7 10.1716 6.32843 9.5 5.5 9.5ZM12.5 14.5C11.6716 14.5 11 15.1716 11 16C11 16.8284 11.6716 17.5 12.5 17.5C13.3284 17.5 14 16.8284 14 16C14 15.1716 13.3284 14.5 12.5 14.5ZM12.9976 13.5495C12.9992 13.5332 13 13.5167 13 13.5V3.5C13 3.22386 12.7761 3 12.5 3C12.2239 3 12 3.22386 12 3.5V13.5C12 13.5167 12.0008 13.5332 12.0024 13.5495C10.8601 13.7802 10 14.7897 10 16C10 17.2103 10.8601 18.2198 12.0024 18.4505C12.0008 18.4668 12 18.4833 12 18.5V20.5C12 20.7761 12.2239 21 12.5 21C12.7761 21 13 20.7761 13 20.5V18.5C13 18.4833 12.9992 18.4668 12.9976 18.4505C14.1399 18.2198 15 17.2103 15 16C15 14.7897 14.1399 13.7802 12.9976 13.5495ZM17 8C17 7.17157 17.6716 6.5 18.5 6.5C19.3284 6.5 20 7.17157 20 8C20 8.82843 19.3284 9.5 18.5 9.5C17.6716 9.5 17 8.82843 17 8ZM19 5.5C19 5.51671 18.9992 5.53323 18.9976 5.54952C20.1399 5.78022 21 6.78967 21 8C21 9.21033 20.1399 10.2198 18.9976 10.4505C18.9992 10.4668 19 10.4833 19 10.5V20.5C19 20.7761 18.7761 21 18.5 21C18.2239 21 18 20.7761 18 20.5V10.5C18 10.4833 18.0008 10.4668 18.0024 10.4505C16.8601 10.2198 16 9.21033 16 8C16 6.78967 16.8601 5.78022 18.0024 5.54952C18.0008 5.53323 18 5.51671 18 5.5V3.5C18 3.22386 18.2239 3 18.5 3C18.7761 3 19 3.22386 19 3.5V5.5Z"/>
</symbol><symbol id="privacyPolicy" viewBox="0 0 24 24">
<path d="M12 12C12.2761 12 12.5 12.2239 12.5 12.5V13.5C12.5 13.7761 12.2761 14 12 14C11.7239 14 11.5 13.7761 11.5 13.5V12.5C11.5 12.2239 11.7239 12 12 12Z"/>
<path fill-rule="evenodd" clip-rule="evenodd" d="M9.5 10V8.32143C9.5 7.03934 10.6193 6 12 6C13.3807 6 14.5 7.03934 14.5 8.32143V10H15.4444C15.7513 10 16 10.2487 16 10.5556V15.4444C16 15.7513 15.7513 16 15.4444 16H8.55556C8.24873 16 8 15.7513 8 15.4444V10.5556C8 10.2487 8.24873 10 8.55556 10H9.5ZM10.5 10V8.32143C10.5 7.66012 11.1005 7 12 7C12.8995 7 13.5 7.66012 13.5 8.32143V10H10.5ZM9 11V15H15V11H9Z"/>
<path fill-rule="evenodd" clip-rule="evenodd" d="M12.1857 2.03576C12.0665 1.98808 11.9335 1.98808 11.8143 2.03576L4.3143 5.03576C4.12448 5.11169 4 5.29555 4 5.5V12.5C4 15.5781 6.02071 17.9561 7.93296 19.5241C8.89844 20.3158 9.86129 20.9221 10.5816 21.3303C10.9424 21.5347 11.2437 21.6903 11.4562 21.7953C11.5624 21.8478 11.6465 21.8878 11.7048 21.9149L11.7475 21.9346L11.7724 21.9459L11.7909 21.9542L11.7961 21.9565L11.7977 21.9573C11.7979 21.9573 11.7986 21.9577 12 21.5L11.7977 21.9573C11.926 22.0137 12.0731 22.0141 12.2014 21.9577L12 21.5C12.2014 21.9577 12.2012 21.9577 12.2014 21.9577L12.2039 21.9565L12.2091 21.9542L12.2276 21.9459L12.2601 21.9311L12.2952 21.9149C12.3535 21.8878 12.4376 21.8478 12.5438 21.7953C12.7563 21.6903 13.0576 21.5347 13.4184 21.3303C14.1387 20.9221 15.1016 20.3158 16.067 19.5241C17.9793 17.9561 20 15.5781 20 12.5V5.5C20 5.29555 19.8755 5.11169 19.6857 5.03576L12.1857 2.03576ZM12.1007 20.8988C12.0641 20.9169 12.0305 20.9334 12 20.9481C11.9695 20.9334 11.9359 20.9169 11.8993 20.8988C11.7016 20.8011 11.417 20.6543 11.0746 20.4603C10.3887 20.0716 9.47656 19.4967 8.56704 18.7509C6.72929 17.2439 5 15.1219 5 12.5V5.83852L12 3.03852L19 5.83852V12.5C19 15.1219 17.2707 17.2439 15.433 18.7509C14.5234 19.4967 13.6113 20.0716 12.9254 20.4603C12.583 20.6543 12.2984 20.8011 12.1007 20.8988Z"/>
</symbol><symbol id="qLogo" viewBox="0 0 24 24">
<path fill-rule="evenodd" clip-rule="evenodd" d="M11.7689 11.8157C16.2044 11.8157 19.8 15.4113 19.8 19.8468V19.9157H11.6311C7.19562 19.9157 3.60001 16.3201 3.60001 11.8847V11.8157H11.7689ZM11.6683 3.60001C16.1593 3.60001 19.8 7.23638 19.8 11.7221C19.8005 12.4175 19.7118 13.1101 19.536 13.7829C17.649 11.4928 14.9412 10.0475 11.9284 10.0189L11.837 10.0184L3.71572 10.0184C4.52337 6.27252 7.83633 3.59868 11.6683 3.60001H11.6683Z"/>
</symbol><symbol id="refresh" viewBox="0 0 24 24">
<path fill-rule="evenodd" clip-rule="evenodd" d="M4 3.5C4 3.22386 3.77614 3 3.5 3C3.22386 3 3 3.22386 3 3.5V8.8125C3 9.08864 3.22386 9.3125 3.5 9.3125H4.01966C4.02727 9.31267 4.03486 9.31267 4.04243 9.3125H8.8125C9.08864 9.3125 9.3125 9.08864 9.3125 8.8125C9.3125 8.53636 9.08864 8.3125 8.8125 8.3125H4.82039C5.53077 6.97822 6.60296 5.86426 7.92064 5.10302C9.46025 4.21357 11.2496 3.855 13.013 4.08254C14.7765 4.31008 16.4162 5.11111 17.6796 6.36224C18.943 7.61337 19.76 9.24519 20.0048 11.0063C20.0428 11.2798 20.2953 11.4708 20.5688 11.4327C20.8423 11.3947 21.0333 11.1422 20.9952 10.8687C20.7203 8.89028 19.8025 7.05716 18.3833 5.65169C16.964 4.24622 15.122 3.34637 13.141 3.09076C11.16 2.83515 9.14995 3.23795 7.42041 4.23713C5.9782 5.07031 4.79778 6.27963 4 7.72752V3.5ZM3.99524 12.9937C3.95723 12.7202 3.70469 12.5292 3.43118 12.5673C3.15766 12.6053 2.96675 12.8578 3.00476 13.1313C3.2797 15.1097 4.19749 16.9428 5.61675 18.3483C7.03601 19.7538 8.878 20.6536 10.859 20.9092C12.84 21.1649 14.8501 20.762 16.5796 19.7629C18.0218 18.9297 19.2022 17.7204 20 16.2725V20.5C20 20.7761 20.2239 21 20.5 21C20.7761 21 21 20.7761 21 20.5V15.1875C21 14.9114 20.7761 14.6875 20.5 14.6875H19.9803C19.9727 14.6873 19.9651 14.6873 19.9576 14.6875H15.1875C14.9114 14.6875 14.6875 14.9114 14.6875 15.1875C14.6875 15.4636 14.9114 15.6875 15.1875 15.6875H19.1796C18.4692 17.0218 17.397 18.1357 16.0794 18.897C14.5397 19.7864 12.7504 20.145 10.987 19.9175C9.22352 19.6899 7.5838 18.8889 6.32039 17.6378C5.05699 16.3866 4.23999 14.7548 3.99524 12.9937Z"/>
</symbol><symbol id="summary" viewBox="0 0 24 24">
<path fill-rule="evenodd" clip-rule="evenodd" d="M5.03489 3.31656C5.11022 3.12554 5.29468 3 5.50002 3H18.5C18.7762 3 19 3.22386 19 3.5C19 3.77614 18.7762 4 18.5 4H6.7678L14.9413 11.6346C15.0426 11.7292 15.1 11.8615 15.1 12C15.1 12.1385 15.0426 12.2708 14.9413 12.3654L6.7678 20H18.5C18.7762 20 19 20.2239 19 20.5C19 20.7761 18.7762 21 18.5 21H5.50002C5.29468 21 5.11022 20.8745 5.03489 20.6834C4.95955 20.4924 5.00866 20.2748 5.15872 20.1346L13.8675 12L5.15872 3.86539C5.00866 3.72523 4.95955 3.50757 5.03489 3.31656Z"/>
</symbol><symbol id="table" viewBox="0 0 24 24">
<path fill-rule="evenodd" clip-rule="evenodd" d="M4 15V20H9V15H4ZM4 4V9H9V4H4ZM3.5 14C3.22386 14 3 14.2239 3 14.5V20.5C3 20.7761 3.22386 21 3.5 21H9.5C9.77614 21 10 20.7761 10 20.5V14.5C10 14.2239 9.77614 14 9.5 14H3.5ZM3.5 3C3.22386 3 3 3.22386 3 3.5V9.5C3 9.77614 3.22386 10 3.5 10H9.5C9.77614 10 10 9.77614 10 9.5V3.5C10 3.22386 9.77614 3 9.5 3H3.5ZM13 4.5C13 4.22386 13.2239 4 13.5 4H20.5C20.7761 4 21 4.22386 21 4.5C21 4.77614 20.7761 5 20.5 5H13.5C13.2239 5 13 4.77614 13 4.5ZM13.5 9C13.2239 9 13 9.22386 13 9.5C13 9.77614 13.2239 10 13.5 10H20.5C20.7761 10 21 9.77614 21 9.5C21 9.22386 20.7761 9 20.5 9H13.5ZM13 14.5C13 14.2239 13.2239 14 13.5 14H20.5C20.7761 14 21 14.2239 21 14.5C21 14.7761 20.7761 15 20.5 15H13.5C13.2239 15 13 14.7761 13 14.5ZM13.5 19C13.2239 19 13 19.2239 13 19.5C13 19.7761 13.2239 20 13.5 20H20.5C20.7761 20 21 19.7761 21 19.5C21 19.2239 20.7761 19 20.5 19H13.5Z"/>
</symbol><symbol id="unarchive" viewBox="0 0 24 24">
<path d="M9.5 17C9.22386 17 9 17.2239 9 17.5C9 17.7761 9.22386 18 9.5 18H14.5C14.7761 18 15 17.7761 15 17.5C15 17.2239 14.7761 17 14.5 17H9.5Z"/>
<path fill-rule="evenodd" clip-rule="evenodd" d="M2.84387 1.63702C2.64341 1.44711 2.32694 1.45566 2.13702 1.65613C1.94711 1.8566 1.95566 2.17306 2.15613 2.36298L5 5.05717V20.5C5 20.7761 5.22386 21 5.5 21H18.5C18.7761 21 19 20.7761 19 20.5V18.3203L21.1561 20.363C21.3566 20.5529 21.6731 20.5443 21.863 20.3439C22.0529 20.1434 22.0443 19.8269 21.8439 19.637L2.84387 1.63702ZM18 17.373L15.4952 15L6 15V20H18V17.373ZM14.4397 14L12.3285 12H9.5C9.22386 12 9 11.7761 9 11.5C9 11.2239 9.22386 11 9.5 11H11.273L9.16187 9L6 9V14L14.4397 14ZM8.10632 8L6 6.00454V8L8.10632 8Z"/>
<path fill-rule="evenodd" clip-rule="evenodd" d="M8 2C7.79555 2 7.61169 2.12448 7.53576 2.3143C7.45983 2.50413 7.50712 2.72107 7.65517 2.86207L18.1552 12.8621C18.3 13 18.5131 13.0384 18.697 12.9596C18.8808 12.8808 19 12.7 19 12.5V2.5C19 2.22386 18.7761 2 18.5 2H8ZM18 11.3333L15.55 9L18 9V11.3333ZM9.25 3L11.35 5H14.5C14.7761 5 15 5.22386 15 5.5C15 5.77614 14.7761 6 14.5 6H12.4L14.5 8L18 8V3H9.25Z"/>
</symbol><symbol id="underline" viewBox="0 0 24 24">
<path d="M8 4.5C8 4.22386 7.77614 4 7.5 4C7.22386 4 7 4.22386 7 4.5V12C7 14.7761 9.22386 17 12 17C14.7761 17 17 14.7761 17 12V4.5C17 4.22386 16.7761 4 16.5 4C16.2239 4 16 4.22386 16 4.5V12C16 14.2239 14.2239 16 12 16C9.77614 16 8 14.2239 8 12V4.5Z"/>
<path d="M5.5 19C5.22386 19 5 19.2239 5 19.5C5 19.7761 5.22386 20 5.5 20H18.5C18.7761 20 19 19.7761 19 19.5C19 19.2239 18.7761 19 18.5 19H5.5Z"/>
</symbol><symbol id="undo" viewBox="0 0 24 24">
<path fill-rule="evenodd" clip-rule="evenodd" d="M11.9908 21C9.79364 21.0065 7.66907 20.2155 6.01485 18.7744C5.80663 18.5931 5.78488 18.2772 5.96626 18.069C6.14765 17.8608 6.46348 17.839 6.6717 18.0204C8.1427 19.3018 10.0327 20.0058 11.9878 20C13.943 19.9941 15.8287 19.279 17.292 17.9888C18.7552 16.6987 19.6957 14.9222 19.938 12.992C20.1803 11.0619 19.7078 9.10977 18.6088 7.50106C17.5097 5.89229 15.8592 4.73705 13.9657 4.25221C12.0722 3.76736 10.0662 3.98633 8.32336 4.86794C6.8064 5.63529 5.57955 6.8587 4.81033 8.35472L8.83512 8.35472C9.11126 8.35472 9.33512 8.57858 9.33512 8.85472C9.33512 9.13086 9.11126 9.35472 8.83512 9.35472L4.04486 9.35472C4.03721 9.3549 4.02954 9.3549 4.02186 9.35472L3.5 9.35472C3.22386 9.35472 3 9.13086 3 8.85472L3 3.54222C3 3.26608 3.22386 3.04222 3.5 3.04222C3.77614 3.04222 4 3.26608 4 3.54222L4 7.7473C4.86935 6.13228 6.21759 4.81247 7.87198 3.97561C9.83118 2.98456 12.0857 2.73856 14.2138 3.28347C16.3418 3.82839 18.198 5.12705 19.4345 6.93696C20.671 8.74692 21.2029 10.9439 20.9302 13.1166C20.6574 15.2892 19.5989 17.288 17.9533 18.7389C16.3078 20.1898 14.188 20.9934 11.9908 21Z"/>
</symbol><symbol id="view" viewBox="0 0 24 24">
<path fill-rule="evenodd" clip-rule="evenodd" d="M12 8.5C10.067 8.5 8.5 10.067 8.5 12C8.5 13.933 10.067 15.5 12 15.5C13.933 15.5 15.5 13.933 15.5 12C15.5 10.067 13.933 8.5 12 8.5ZM9.5 12C9.5 10.6193 10.6193 9.5 12 9.5C13.3807 9.5 14.5 10.6193 14.5 12C14.5 13.3807 13.3807 14.5 12 14.5C10.6193 14.5 9.5 13.3807 9.5 12Z"/>
<path fill-rule="evenodd" clip-rule="evenodd" d="M21.9413 11.765C22.0193 11.9117 22.0195 12.0879 21.9415 12.2347L21.5 12C21.9415 12.2347 21.941 12.2356 21.941 12.2356L21.9402 12.2371L21.9376 12.2419L21.9287 12.2584C21.921 12.2725 21.9099 12.2925 21.8955 12.3181C21.8667 12.3694 21.8244 12.443 21.7689 12.5359C21.6579 12.7215 21.4937 12.9843 21.278 13.2986C20.8471 13.9263 20.2074 14.7638 19.3712 15.6029C17.7059 17.2741 15.2108 19 12 19C8.78924 19 6.29411 17.2741 4.62878 15.6029C3.79259 14.7638 3.15289 13.9263 2.72202 13.2986C2.50628 12.9843 2.34211 12.7215 2.2311 12.5359C2.17558 12.443 2.1333 12.3694 2.10448 12.3181C2.09006 12.2925 2.07901 12.2725 2.07133 12.2584L2.06236 12.2419L2.05979 12.2371L2.05897 12.2356L2.05848 12.2347L2.5 12C2.05848 11.7653 2.05897 11.7644 2.05897 11.7644L2.05979 11.7629L2.06236 11.7581L2.07133 11.7416C2.07901 11.7275 2.09006 11.7075 2.10448 11.6819C2.1333 11.6306 2.17558 11.557 2.2311 11.4641C2.34211 11.2785 2.50628 11.0157 2.72202 10.7014C3.15289 10.0737 3.79259 9.23619 4.62878 8.39707C6.29411 6.7259 8.78924 5 12 5C15.2108 5 17.7059 6.7259 19.3712 8.39707C20.2074 9.23619 20.8471 10.0737 21.278 10.7014C21.4937 11.0157 21.6579 11.2785 21.7689 11.4641C21.8244 11.557 21.8667 11.6306 21.8955 11.6819C21.9029 11.695 21.9094 11.7067 21.915 11.7168C21.9204 11.7265 21.9249 11.7347 21.9287 11.7416L21.9376 11.7581L21.9402 11.7629L21.9413 11.765ZM3.54645 12.7326C3.34386 12.4375 3.19092 12.1925 3.08939 12.0227L3.07585 12L3.08939 11.9773C3.19092 11.8075 3.34386 11.5625 3.54645 11.2674C3.95223 10.6763 4.554 9.88881 5.33713 9.10293C6.91044 7.5241 9.16531 6 12 6C14.8347 6 17.0896 7.5241 18.6629 9.10293C19.446 9.88881 20.0478 10.6763 20.4536 11.2674C20.6561 11.5625 20.8091 11.8075 20.9106 11.9773L20.9242 12L20.9106 12.0227C20.8091 12.1925 20.6561 12.4375 20.4536 12.7326C20.0478 13.3237 19.446 14.1112 18.6629 14.8971C17.0896 16.4759 14.8347 18 12 18C9.16531 18 6.91044 16.4759 5.33713 14.8971C4.554 14.1112 3.95223 13.3237 3.54645 12.7326ZM21.5 12C21.9415 11.7653 21.9413 11.765 21.9413 11.765L21.5 12Z"/>
<path d="M2.5 12C2.05848 12.2347 2.05848 12.2347 2.05848 12.2347C1.98051 12.0879 1.98051 11.9121 2.05848 11.7653L2.5 12Z"/>
</symbol><symbol id="warning" viewBox="0 0 24 24">
<path fill-rule="evenodd" clip-rule="evenodd" d="M12 4C7.58172 4 4 7.58172 4 12C4 16.4183 7.58172 20 12 20C16.4183 20 20 16.4183 20 12C20 7.58172 16.4183 4 12 4ZM3 12C3 7.02944 7.02944 3 12 3C16.9706 3 21 7.02944 21 12C21 16.9706 16.9706 21 12 21C7.02944 21 3 16.9706 3 12ZM12 14.5C11.7239 14.5 11.5 14.2761 11.5 14V8C11.5 7.72385 11.7239 7.5 12 7.5C12.2761 7.5 12.5 7.72385 12.5 8V14C12.5 14.2761 12.2761 14.5 12 14.5ZM12.5 16.2C12.5 15.9239 12.2761 15.7 12 15.7C11.7239 15.7 11.5 15.9239 11.5 16.2V16.5C11.5 16.7762 11.7239 17 12 17C12.2761 17 12.5 16.7762 12.5 16.5V16.2Z"/>
</symbol></svg>